# xmcd
#
# Track frame offsets: 
#        150
#        16211
#        32833
#        50926
#        68271
#        87949
#        106575
#        121999
#        139016
#        155522
#
# Disc length: 2318 seconds
#
# Revision: 0
# Processed by: cddbd v1.5.2PL0 Copyright (c) Steve Scherf et al.
# Submitted via: ExactAudioCopy v0.95b4
#
DISCID=78090c0a
DTITLE=ร็อคแสลง - สาวบ้านเชียง
DYEAR=2007
DGENRE=Country
TTITLE0=สาวบ้านเชียง
TTITLE1=สาวโรงงาน
TTITLE2=หนุ่มสุรินทร์เหลา
TTITLE3=ยายแล่ม
TTITLE4=หนุ่มบุรีรัมย์-สาวยะลา
TTITLE5=คุณนาย อ.บ.ต.
TTITLE6=ถ่ายรูปบ่ขึ้น
TTITLE7=หนุ่มเหล้าขาวสาวเชียร์เบียร์
TTITLE8=แมงแข่วหล่อน
TTITLE9=มาเด้อหล้า..ขาร๊อค
EXTD=
EXTT0=
EXTT1=
EXTT2=
EXTT3=
EXTT4=
EXTT5=
EXTT6=
EXTT7=
EXTT8=
EXTT9=
PLAYORDER=
